<svg width="18" height="19" viewBox="0 0 18 19" fill="none" xmlns="http://www.w3.org/2000/svg">
<path fill-rule="evenodd" clip-rule="evenodd" d="M15.75 0.0379639H2.25C1.00912 0.0379639 0 1.04709 0 2.28796V15.788C0 17.0288 1.00912 18.038 2.25 18.038H9V11.8505H6.75V9.03796H9V6.78796C9 5.89286 9.35558 5.03441 9.98851 4.40148C10.6214 3.76854 11.4799 3.41296 12.375 3.41296H14.625V6.22546H13.5C12.879 6.22546 12.375 6.16696 12.375 6.78796V9.03796H15.1875L14.0625 11.8505H12.375V18.038H15.75C16.9909 18.038 18 17.0288 18 15.788V2.28796C18 1.04709 16.9909 0.0379639 15.75 0.0379639Z" fill="white"/>
</svg>
