<svg width="26" height="19" viewBox="0 0 26 19" fill="none" xmlns="http://www.w3.org/2000/svg">
<path d="M24.8625 2.77011C24.5438 1.64511 23.7469 0.841536 22.6313 0.520107C20.7188 0.0379641 12.5906 0.0379639 12.5906 0.0379639C12.5906 0.0379639 4.62188 0.0379641 2.55001 0.520107C1.43438 0.841536 0.637495 1.64511 0.318745 2.77011C-4.85778e-06 4.85939 0 9.03796 0 9.03796C0 9.03796 4.85778e-06 13.2165 0.47813 15.3058C0.79688 16.4308 1.59375 17.2344 2.70937 17.5558C4.62187 18.038 12.75 18.038 12.75 18.038C12.75 18.038 20.7187 18.038 22.7906 17.5558C23.9062 17.2344 24.7031 16.4308 25.0219 15.3058C25.5 13.2165 25.5 9.03796 25.5 9.03796C25.5 9.03796 25.5 4.85939 24.8625 2.77011ZM10.2 12.8951V5.18082L16.8938 9.03796L10.2 12.8951Z" fill="white"/>
</svg>
